<?xml version="1.0" encoding="UTF-8"?><svg xmlns="http://www.w3.org/2000/svg" viewBox="0 0 233.74 227"><defs><style>.d{fill:#fff;}.e{fill:#ea580c;}</style></defs><g id="a"/><g id="b"><g id="c"><rect class="e" width="233.74" height="227" rx="35.42" ry="35.42"/><path class="d" d="M159.73,192.36c-1.24,0-2.49-.12-3.74-.36-12.56-2.46-25.4-8.99-39.12-19.9-13.72,10.91-26.57,17.43-39.11,19.9-10.84,2.11-21.52-5.23-23.82-16.38-6.87-33.3-6.8-69.17,.21-106.62,2.13-11.4,9.49-20.99,19.67-25.64,8.97-4.1,23.78-8.98,43.05-8.72,19.26-.15,34.07,4.62,43.05,8.72,10.18,4.65,17.54,14.23,19.68,25.64,7.01,37.45,7.08,73.32,.22,106.61-2.04,9.87-10.64,16.75-20.08,16.75Zm-42.86-37.86c1.78,0,3.55,.62,4.99,1.85,13.56,11.64,25.69,18.38,37.08,20.62,2.55,.51,5.27-1.54,5.87-4.45,6.46-31.34,6.37-65.22-.27-100.7-1.22-6.51-5.32-11.94-10.98-14.52-7.57-3.45-20.18-7.6-36.6-7.33h-.18c-16.56-.19-29.03,3.88-36.6,7.33-5.65,2.58-9.76,8.01-10.98,14.52-6.64,35.48-6.73,69.36-.27,100.7,.6,2.91,3.32,4.92,5.87,4.45,11.38-2.24,23.51-8.98,37.07-20.62,1.43-1.23,3.21-1.85,4.99-1.85Z"/></g></g></svg>